<svg xmlns="http://www.w3.org/2000/svg" xmlns:xlink="http://www.w3.org/1999/xlink" viewBox="0 0 622.25 570.16"><defs><style>.cls-1,.cls-20,.cls-3{fill:none;}.cls-2{fill:#fff;}.cls-2,.cls-20{stroke:#231f20;}.cls-2,.cls-20,.cls-3{stroke-miterlimit:10;}.cls-3{stroke:#000;stroke-width:0px;opacity:0;}.cls-4{clip-path:url(#clip-path);}.cls-5{fill:#1c1c1c;}.cls-6{clip-path:url(#clip-path-2);}.cls-7{clip-path:url(#clip-path-3);}.cls-8{clip-path:url(#clip-path-4);}.cls-9{clip-path:url(#clip-path-5);}.cls-10{clip-path:url(#clip-path-6);}.cls-11{clip-path:url(#clip-path-7);}.cls-12{clip-path:url(#clip-path-8);}.cls-13{clip-path:url(#clip-path-9);}.cls-14{clip-path:url(#clip-path-10);}.cls-15{clip-path:url(#clip-path-11);}.cls-16{clip-path:url(#clip-path-12);}.cls-17{clip-path:url(#clip-path-13);}.cls-18{clip-path:url(#clip-path-14);}.cls-19{clip-path:url(#clip-path-15);}.cls-20{stroke-width:2px;}.cls-21{fill:#231f20;}</style><clipPath id="clip-path"><rect class="cls-1" x="87.26" y="44.63" width="57.99" height="18"/></clipPath><clipPath id="clip-path-2"><rect class="cls-1" x="190.95" y="44.63" width="57.99" height="18"/></clipPath><clipPath id="clip-path-3"><rect class="cls-1" x="294.65" y="44.63" width="57.99" height="18"/></clipPath><clipPath id="clip-path-4"><rect class="cls-1" x="502.04" y="44.63" width="57.99" height="18"/></clipPath><clipPath id="clip-path-5"><rect class="cls-1" x="398.35" y="44.63" width="57.99" height="18"/></clipPath><clipPath id="clip-path-6"><rect class="cls-1" x="555.38" y="132.4" width="57.99" height="18"/></clipPath><clipPath id="clip-path-7"><rect class="cls-1" x="503.83" y="226.4" width="57.99" height="18"/></clipPath><clipPath id="clip-path-8"><rect class="cls-1" x="452" y="317" width="57.99" height="18"/></clipPath><clipPath id="clip-path-9"><rect class="cls-1" x="400.14" y="406.01" width="57.99" height="18"/></clipPath><clipPath id="clip-path-10"><rect class="cls-1" x="344.87" y="494.39" width="65.99" height="18"/></clipPath><clipPath id="clip-path-11"><rect class="cls-1" x="239.68" y="494.39" width="65.99" height="18"/></clipPath><clipPath id="clip-path-12"><rect class="cls-1" x="187.83" y="404.91" width="65.99" height="18"/></clipPath><clipPath id="clip-path-13"><rect class="cls-1" x="135.99" y="316.46" width="65.99" height="18"/></clipPath><clipPath id="clip-path-14"><rect class="cls-1" x="84.14" y="225.98" width="65.99" height="18"/></clipPath><clipPath id="clip-path-15"><rect class="cls-1" x="32.29" y="135.5" width="65.99" height="18"/></clipPath></defs><g id="Layer_2" data-name="Layer 2"><g id="Layer_1-2" data-name="Layer 1"><circle class="cls-2" cx="116.26" cy="54.27" r="36.47"/><polygon class="cls-3" points="116.06 54.27 116.06 54.27 116.06 54.27 116.06 54.27 116.06 54.27 116.06 54.27 116.06 54.27 116.06 54.27 116.06 54.27 116.06 54.27 116.06 54.27 116.06 54.27 116.06 54.27 116.06 54.27 116.06 54.27 116.06 54.27 116.06 54.27 116.06 54.27 116.06 54.27 116.06 54.27 116.06 54.27 116.06 54.27 116.06 54.27 116.06 54.27 116.06 54.27 116.06 54.27 116.06 54.27 116.06 54.27 116.06 54.27 116.06 54.27 116.06 54.27 116.06 54.27 116.06 54.27 116.06 54.27 116.06 54.27 116.06 54.27 116.06 54.27 116.06 54.27 116.06 54.27 116.06 54.27 116.06 54.27 116.06 54.27 116.06 54.27 116.06 54.27 116.06 54.27 116.06 54.27 116.06 54.27 116.06 54.27 116.06 54.27 116.06 54.27 116.06 54.27 116.06 54.27 116.06 54.27 116.06 54.27 116.06 54.27 116.06 54.27 116.06 54.27 116.06 54.27 116.06 54.27 116.06 54.27 116.06 54.27 116.06 54.27 116.06 54.27 116.06 54.27 116.06 54.27 116.06 54.27 116.06 54.27 116.06 54.27 116.06 54.27 116.06 54.27 116.06 54.27 116.06 54.27 116.06 54.27 116.06 54.27 116.06 54.27 116.06 54.27 116.06 54.27 116.06 54.27 116.06 54.27 116.06 54.27 116.06 54.27 116.06 54.27 116.06 54.27 116.06 54.27 116.06 54.27 116.06 54.27 116.06 54.27 116.06 54.27 116.06 54.27 116.06 54.27"/><g class="cls-4"><path class="cls-5" d="M90.43,57.18a11.63,11.63,0,0,0,1.67-4c.7-2.74,1.45-5.12,2.68-6.49a1.12,1.12,0,0,1,1-.44c1.37,0,1.41,1.37,1.41,1.65a4.78,4.78,0,0,1-.1.73.13.13,0,0,0,.14.14,2.72,2.72,0,0,0,1.35-.57c.36-.28.54-.48.54-1.29A1.66,1.66,0,0,0,97.49,45a6.14,6.14,0,0,0-4.33,2.12c-1.59,1.63-2.53,5.21-2.91,6.7A12.85,12.85,0,0,1,89.14,57a8.74,8.74,0,0,1-.93,1.37c-.54.5-.74.85-.74,1s0,.12.18.12a2.5,2.5,0,0,0,1-.41,3.09,3.09,0,0,0,.83-.72,10.45,10.45,0,0,1,2.94.56,12.06,12.06,0,0,0,3,.57,5.43,5.43,0,0,0,3.87-2.08,2.75,2.75,0,0,0,.52-1.1.13.13,0,0,0-.14-.14,2.34,2.34,0,0,0-1.13.46c-.54.34-.58.46-.7.8a2.11,2.11,0,0,1-.29.59c-.16.24-.18.24-.48.24a13.43,13.43,0,0,1-3.26-.65,10.16,10.16,0,0,0-2.64-.48,3.62,3.62,0,0,0-.8.08"/><path class="cls-5" d="M105.22,53.08c0-.37,0-.39-.42-.39a3.79,3.79,0,0,1-2.73.89v.5a4.57,4.57,0,0,0,2-.39v7.09c0,.46,0,.65-1.39.65h-.53v.5c.25,0,2-.06,2.48-.06s2.18,0,2.49.06v-.5h-.53c-1.39,0-1.39-.19-1.39-.65v-7.7"/><path class="cls-5" d="M128.73,56.38c.27,0,.65,0,.65-.39s-.38-.4-.67-.4H116.85c-.3,0-.68,0-.68.4s.38.39.66.39h11.9m0-3.85c.29,0,.67,0,.67-.4s-.38-.4-.65-.4h-11.9c-.28,0-.66,0-.66.4s.38.4.68.4Z"/><path class="cls-5" d="M141.9,46.31c0-.48,0-.52-.46-.52a4.91,4.91,0,0,1-3.61,1.27v.62a5.92,5.92,0,0,0,2.6-.52v10.3c0,.71-.06.95-1.85.95H138V59c.69-.06,2.42-.06,3.21-.06s2.53,0,3.22.06v-.62h-.63c-1.79,0-1.85-.22-1.85-.95V46.31"/></g><circle class="cls-2" cx="219.95" cy="54.27" r="36.47"/><circle class="cls-2" cx="427.35" cy="54.27" r="36.47"/><circle class="cls-2" cx="323.65" cy="54.27" r="36.47"/><circle class="cls-2" cx="531.04" cy="54.27" r="36.47"/><polygon class="cls-3" points="219.76 54.27 219.76 54.27 219.76 54.27 219.76 54.27 219.76 54.27 219.76 54.27 219.76 54.27 219.76 54.27 219.76 54.27 219.76 54.27 219.76 54.27 219.76 54.27 219.76 54.27 219.76 54.27 219.76 54.27 219.76 54.27 219.76 54.27 219.76 54.27 219.76 54.27 219.76 54.27 219.76 54.27 219.76 54.27 219.76 54.27 219.76 54.27 219.76 54.27 219.76 54.27 219.76 54.27 219.76 54.27 219.76 54.27 219.76 54.27 219.76 54.27 219.76 54.27 219.76 54.27 219.76 54.27 219.76 54.27 219.76 54.27 219.76 54.27 219.76 54.27 219.76 54.27 219.76 54.27 219.76 54.27 219.76 54.27 219.76 54.27 219.76 54.27 219.76 54.27 219.76 54.27 219.76 54.27 219.76 54.27 219.76 54.27 219.76 54.27 219.76 54.27 219.76 54.27 219.76 54.27 219.76 54.27 219.76 54.27 219.76 54.27 219.76 54.27 219.76 54.27 219.76 54.27 219.76 54.27 219.76 54.27 219.76 54.27 219.76 54.27 219.76 54.27 219.76 54.27 219.76 54.27 219.76 54.27 219.76 54.27 219.76 54.27 219.76 54.27 219.76 54.27 219.76 54.27 219.76 54.27 219.76 54.27 219.76 54.27 219.76 54.27 219.76 54.27 219.76 54.27 219.76 54.27 219.76 54.27 219.76 54.27 219.76 54.27 219.76 54.27 219.76 54.27 219.76 54.27 219.76 54.27 219.76 54.27 219.76 54.27 219.76 54.27 219.76 54.27"/><g class="cls-6"><path class="cls-5" d="M194.13,57.18a12,12,0,0,0,1.67-4c.69-2.74,1.45-5.12,2.68-6.49a1.12,1.12,0,0,1,1-.44c1.37,0,1.4,1.37,1.4,1.65a5.28,5.28,0,0,1-.09.73.13.13,0,0,0,.14.14,2.76,2.76,0,0,0,1.35-.57c.35-.28.53-.48.53-1.29,0-1.08-.55-1.89-1.67-1.89a6.17,6.17,0,0,0-4.33,2.12c-1.59,1.63-2.52,5.21-2.9,6.7A13.27,13.27,0,0,1,192.84,57a9.49,9.49,0,0,1-.93,1.37c-.54.5-.74.85-.74,1s0,.12.18.12a2.48,2.48,0,0,0,1-.41,3,3,0,0,0,.84-.72,10.45,10.45,0,0,1,2.94.56,12,12,0,0,0,3,.57,5.43,5.43,0,0,0,3.87-2.08,2.75,2.75,0,0,0,.52-1.1.13.13,0,0,0-.14-.14,2.3,2.3,0,0,0-1.13.46c-.54.34-.58.46-.7.8a2.06,2.06,0,0,1-.3.59c-.16.24-.18.24-.47.24a13.34,13.34,0,0,1-3.26-.65,10.17,10.17,0,0,0-2.65-.48,3.59,3.59,0,0,0-.79.08"/><path class="cls-5" d="M211.28,59.39h-.48a3.23,3.23,0,0,1-.36,1.27,7.43,7.43,0,0,1-1.37.08h-2.56c1.46-1.29,1.94-1.68,2.78-2.33,1-.82,2-1.69,2-3,0-1.68-1.48-2.71-3.26-2.71a2.7,2.7,0,0,0-2.89,2.49.74.74,0,1,0,1.47,0c0-.25-.09-.74-.82-.74a2.21,2.21,0,0,1,2-1.29,2.08,2.08,0,0,1,2.11,2.21,4.2,4.2,0,0,1-1.31,2.67l-3.35,3.31c-.14.13-.14.16-.14.55h5.73l.42-2.54"/><path class="cls-5" d="M232.42,56.38c.28,0,.66,0,.66-.39s-.38-.4-.68-.4H220.54c-.3,0-.67,0-.67.4s.37.39.65.39h11.9m0-3.85c.3,0,.68,0,.68-.4s-.38-.4-.66-.4h-11.9c-.28,0-.65,0-.65.4s.37.4.67.4Z"/><path class="cls-5" d="M245.59,46.31c0-.48,0-.52-.45-.52a4.91,4.91,0,0,1-3.62,1.27v.62a5.89,5.89,0,0,0,2.6-.52v10.3c0,.71-.05.95-1.84.95h-.64V59c.7-.06,2.43-.06,3.22-.06s2.52,0,3.22.06v-.62h-.64c-1.79,0-1.85-.22-1.85-.95V46.31"/></g><polygon class="cls-3" points="323.45 53.98 323.45 53.98 323.45 53.98 323.45 53.98 323.45 53.98 323.45 53.98 323.45 53.98 323.45 53.98 323.45 53.98 323.45 53.98 323.45 53.98 323.45 53.98 323.45 53.98 323.45 53.98 323.45 53.98 323.45 53.98 323.45 53.98 323.45 53.98 323.45 53.98 323.45 53.98 323.45 53.98 323.45 53.98 323.45 53.98 323.45 53.98 323.45 53.98 323.45 53.98 323.45 53.98 323.45 53.98 323.45 53.98 323.45 53.98 323.45 53.98 323.45 53.98 323.45 53.98 323.45 53.98 323.45 53.98 323.45 53.98 323.45 53.98 323.45 53.98 323.45 53.98 323.45 53.98 323.45 53.98 323.45 53.98 323.45 53.98 323.45 53.98 323.45 53.98 323.45 53.98 323.45 53.98 323.45 53.98 323.45 53.98 323.45 53.98 323.45 53.98 323.45 53.98 323.45 53.98 323.45 53.98 323.45 53.98 323.45 53.98 323.45 53.98 323.45 53.98 323.45 53.98 323.45 53.98 323.45 53.98 323.45 53.98 323.45 53.98 323.45 53.98 323.45 53.98 323.45 53.98 323.45 53.98 323.45 53.98 323.45 53.98 323.45 53.98 323.45 53.98 323.45 53.98 323.45 53.98 323.45 53.98 323.45 53.98 323.45 53.98 323.45 53.98 323.45 53.98 323.45 53.98 323.45 53.98 323.45 53.98 323.45 53.98 323.45 53.98 323.45 53.98 323.45 53.98 323.45 53.98 323.45 53.98 323.45 53.98 323.45 53.98 323.45 53.98"/><g class="cls-7"><path class="cls-5" d="M297.83,57.18a12,12,0,0,0,1.67-4c.69-2.74,1.45-5.12,2.68-6.49a1.11,1.11,0,0,1,1-.44c1.37,0,1.41,1.37,1.41,1.65a4.78,4.78,0,0,1-.1.73.13.13,0,0,0,.14.14A2.72,2.72,0,0,0,306,48.2c.36-.28.54-.48.54-1.29A1.66,1.66,0,0,0,304.88,45a6.15,6.15,0,0,0-4.33,2.12c-1.59,1.63-2.52,5.21-2.9,6.7A13.29,13.29,0,0,1,296.53,57a8.1,8.1,0,0,1-.93,1.37c-.54.5-.73.85-.73,1s0,.12.18.12a2.53,2.53,0,0,0,1-.41,2.82,2.82,0,0,0,.83-.72,10.39,10.39,0,0,1,2.94.56,12.15,12.15,0,0,0,3,.57,5.48,5.48,0,0,0,3.88-2.08,2.82,2.82,0,0,0,.51-1.1.13.13,0,0,0-.14-.14,2.38,2.38,0,0,0-1.13.46c-.53.34-.57.46-.69.8a2.06,2.06,0,0,1-.3.59c-.16.24-.18.24-.48.24a13.52,13.52,0,0,1-3.26-.65,10.08,10.08,0,0,0-2.64-.48,3.47,3.47,0,0,0-.79.08"/><path class="cls-5" d="M311.75,57.28c1.08,0,1.86.75,1.86,2.24,0,1.72-1,2.24-1.81,2.24a3,3,0,0,1-2.36-1,.77.77,0,1,0-.74-.73c0,1.31,1.45,2.15,3.13,2.15a3,3,0,0,0,3.27-2.68A2.74,2.74,0,0,0,312.68,57a2.66,2.66,0,0,0,2-2.42c0-1.1-1.27-1.92-2.81-1.92s-2.73.75-2.73,1.87a.72.72,0,1,0,1.43,0,.7.7,0,0,0-.7-.72,2.64,2.64,0,0,1,2-.77,1.4,1.4,0,0,1,1.5,1.52,2.67,2.67,0,0,1-.56,1.65,1.79,1.79,0,0,1-1.54.6,2.57,2.57,0,0,0-.45,0s-.14,0-.14.18.13.19.37.19h.75"/><path class="cls-5" d="M336.12,56.38c.28,0,.66,0,.66-.39s-.38-.4-.68-.4H324.24c-.3,0-.68,0-.68.4s.38.39.66.39h11.9m0-3.85c.3,0,.68,0,.68-.4s-.38-.4-.66-.4h-11.9c-.28,0-.66,0-.66.4s.38.4.68.4Z"/><path class="cls-5" d="M349.29,46.31c0-.48,0-.52-.46-.52a4.89,4.89,0,0,1-3.61,1.27v.62a5.89,5.89,0,0,0,2.6-.52v10.3c0,.71-.06.95-1.85.95h-.63V59c.69-.06,2.42-.06,3.22-.06s2.52,0,3.22.06v-.62h-.64c-1.79,0-1.85-.22-1.85-.95V46.31"/></g><polygon class="cls-3" points="530.85 53.98 530.85 53.98 530.85 53.98 530.85 53.98 530.85 53.98 530.85 53.98 530.85 53.98 530.85 53.98 530.85 53.98 530.85 53.98 530.85 53.98 530.85 53.98 530.85 53.98 530.85 53.98 530.85 53.98 530.85 53.98 530.85 53.98 530.85 53.98 530.85 53.98 530.85 53.98 530.85 53.98 530.85 53.98 530.85 53.98 530.85 53.98 530.85 53.98 530.85 53.98 530.85 53.98 530.85 53.98 530.85 53.98 530.85 53.98 530.85 53.98 530.85 53.98 530.85 53.98 530.85 53.98 530.85 53.98 530.85 53.98 530.85 53.98 530.85 53.98 530.85 53.98 530.85 53.98 530.85 53.98 530.85 53.98 530.85 53.98 530.85 53.98 530.85 53.98 530.85 53.98 530.85 53.98 530.85 53.98 530.85 53.98 530.85 53.98 530.85 53.98 530.85 53.98 530.85 53.98 530.85 53.98 530.85 53.98 530.85 53.98 530.85 53.98 530.85 53.98 530.85 53.98 530.85 53.98 530.85 53.98 530.85 53.98 530.85 53.98 530.85 53.98 530.85 53.98 530.85 53.98 530.85 53.98 530.85 53.98 530.85 53.98 530.85 53.98 530.85 53.98 530.85 53.98 530.85 53.98 530.85 53.98 530.85 53.98 530.85 53.98 530.85 53.98 530.85 53.98 530.85 53.98 530.85 53.98 530.85 53.98 530.85 53.98 530.85 53.98 530.85 53.98 530.85 53.98 530.85 53.98 530.85 53.98 530.85 53.98 530.85 53.98 530.85 53.98"/><g class="cls-8"><path class="cls-5" d="M505.22,57.18a12,12,0,0,0,1.67-4c.69-2.74,1.45-5.12,2.68-6.49a1.11,1.11,0,0,1,1-.44c1.37,0,1.41,1.37,1.41,1.65a4.78,4.78,0,0,1-.1.73.13.13,0,0,0,.14.14,2.69,2.69,0,0,0,1.35-.57c.36-.28.54-.48.54-1.29,0-1.08-.55-1.89-1.67-1.89a6.17,6.17,0,0,0-4.33,2.12c-1.59,1.63-2.52,5.21-2.9,6.7A13.72,13.72,0,0,1,503.93,57a8.84,8.84,0,0,1-.94,1.37c-.53.5-.73.85-.73,1s0,.12.18.12a2.48,2.48,0,0,0,1-.41,3,3,0,0,0,.84-.72,10.51,10.51,0,0,1,2.94.56,12,12,0,0,0,3,.57,5.48,5.48,0,0,0,3.88-2.08,2.75,2.75,0,0,0,.52-1.1.13.13,0,0,0-.14-.14,2.3,2.3,0,0,0-1.13.46c-.54.34-.58.46-.7.8a2.06,2.06,0,0,1-.3.59c-.16.24-.18.24-.48.24a13.36,13.36,0,0,1-3.25-.65A10.17,10.17,0,0,0,506,57.1a3.59,3.59,0,0,0-.79.08"/><path class="cls-5" d="M517.5,54.16a4.79,4.79,0,0,0,1.35.19,3.35,3.35,0,0,0,2.92-1.46c0-.16-.1-.2-.17-.2a.16.16,0,0,0-.11,0,5.57,5.57,0,0,1-2.1.41,5.49,5.49,0,0,1-2-.38c-.14-.07-.17-.07-.18-.07-.18,0-.18.15-.18.38v4.1c0,.24,0,.4.22.4s.14,0,.28-.19a2.37,2.37,0,0,1,1.93-.88,1.49,1.49,0,0,1,1.28.78,3.6,3.6,0,0,1,.33,1.79,3.36,3.36,0,0,1-.41,1.85,2,2,0,0,1-1.63.84,2.3,2.3,0,0,1-2.18-1.42.67.67,0,0,0,.79-.68.7.7,0,1,0-1.39,0A2.68,2.68,0,0,0,519,62.2a3.22,3.22,0,0,0,3.34-3.07,3,3,0,0,0-2.92-3,2.91,2.91,0,0,0-2,.68V54.16"/><path class="cls-5" d="M543.51,56.38c.28,0,.66,0,.66-.39s-.38-.4-.68-.4H531.63c-.3,0-.67,0-.67.4s.37.39.65.39h11.9m0-3.85c.3,0,.68,0,.68-.4s-.38-.4-.66-.4h-11.9c-.28,0-.65,0-.65.4s.37.4.67.4Z"/><path class="cls-5" d="M556.68,46.31c0-.48,0-.52-.45-.52a4.93,4.93,0,0,1-3.62,1.27v.62a5.89,5.89,0,0,0,2.6-.52v10.3c0,.71-.06.95-1.84.95h-.64V59c.7-.06,2.42-.06,3.22-.06s2.52,0,3.22.06v-.62h-.64c-1.79,0-1.85-.22-1.85-.95V46.31"/></g><polygon class="cls-3" points="427.15 54.27 427.15 54.27 427.15 54.27 427.15 54.27 427.15 54.27 427.15 54.27 427.15 54.27 427.15 54.27 427.15 54.27 427.15 54.27 427.15 54.27 427.15 54.27 427.15 54.27 427.15 54.27 427.15 54.27 427.15 54.27 427.15 54.27 427.15 54.27 427.15 54.27 427.15 54.27 427.15 54.27 427.15 54.27 427.15 54.27 427.15 54.27 427.15 54.27 427.15 54.27 427.15 54.27 427.15 54.27 427.15 54.27 427.15 54.27 427.15 54.27 427.15 54.27 427.15 54.27 427.15 54.27 427.15 54.27 427.15 54.27 427.15 54.27 427.15 54.27 427.15 54.27 427.15 54.27 427.15 54.27 427.15 54.27 427.15 54.27 427.15 54.27 427.15 54.27 427.15 54.27 427.15 54.27 427.15 54.27 427.15 54.27 427.15 54.27 427.15 54.27 427.15 54.27 427.15 54.27 427.15 54.27 427.15 54.27 427.15 54.27 427.15 54.27 427.15 54.27 427.15 54.27 427.15 54.27 427.15 54.27 427.15 54.27 427.15 54.27 427.15 54.27 427.15 54.27 427.15 54.27 427.15 54.27 427.15 54.27 427.15 54.27 427.15 54.27 427.15 54.27 427.15 54.27 427.15 54.27 427.15 54.27 427.15 54.27 427.15 54.27 427.15 54.27 427.15 54.27 427.15 54.27 427.15 54.27 427.15 54.27 427.15 54.27 427.15 54.27 427.15 54.27 427.15 54.27 427.15 54.27 427.15 54.27 427.15 54.27 427.15 54.27 427.15 54.27"/><g class="cls-9"><path class="cls-5" d="M401.52,57.18a11.83,11.83,0,0,0,1.67-4c.7-2.74,1.45-5.12,2.68-6.49a1.12,1.12,0,0,1,1-.44c1.37,0,1.41,1.37,1.41,1.65a4.78,4.78,0,0,1-.1.73.13.13,0,0,0,.14.14,2.76,2.76,0,0,0,1.35-.57c.36-.28.54-.48.54-1.29A1.66,1.66,0,0,0,408.58,45a6.14,6.14,0,0,0-4.33,2.12c-1.6,1.63-2.53,5.21-2.91,6.7A12.85,12.85,0,0,1,400.23,57a8.74,8.74,0,0,1-.93,1.37c-.54.5-.74.85-.74,1s0,.12.18.12a2.43,2.43,0,0,0,1-.41,3,3,0,0,0,.84-.72,10.45,10.45,0,0,1,2.94.56,12.06,12.06,0,0,0,3,.57,5.43,5.43,0,0,0,3.87-2.08,2.75,2.75,0,0,0,.52-1.1.13.13,0,0,0-.14-.14,2.34,2.34,0,0,0-1.13.46c-.54.34-.58.46-.7.8a2.43,2.43,0,0,1-.29.59c-.16.24-.18.24-.48.24a13.34,13.34,0,0,1-3.26-.65,10.16,10.16,0,0,0-2.64-.48,3.62,3.62,0,0,0-.8.08"/><path class="cls-5" d="M416.37,54.05v5.09H412.7ZM419,59.64v-.5h-1.54v-6.2c0-.29,0-.39-.31-.39-.16,0-.22,0-.36.2l-4.6,6.39v.5h4.09v1.14c0,.48,0,.65-1.13.65h-.37v.5c.69,0,1.58-.06,2.08-.06s1.41,0,2.1.06v-.5h-.37c-1.13,0-1.13-.17-1.13-.65V59.64Z"/><path class="cls-5" d="M439.82,56.38c.27,0,.65,0,.65-.39s-.38-.4-.67-.4H427.93c-.29,0-.67,0-.67.4s.38.39.66.39h11.9m0-3.85c.29,0,.67,0,.67-.4s-.38-.4-.65-.4h-11.9c-.28,0-.66,0-.66.4s.38.4.67.4Z"/><path class="cls-5" d="M453,46.31c0-.48,0-.52-.46-.52a4.91,4.91,0,0,1-3.61,1.27v.62a5.94,5.94,0,0,0,2.6-.52v10.3c0,.71-.06.95-1.85.95H449V59c.7-.06,2.43-.06,3.22-.06s2.53,0,3.22.06v-.62h-.63c-1.79,0-1.85-.22-1.85-.95V46.31"/></g><circle class="cls-2" cx="272.68" cy="504.39" r="36.47"/><circle class="cls-2" cx="220.83" cy="414.59" r="36.47"/><circle class="cls-2" cx="117.14" cy="234.98" r="36.47"/><circle class="cls-2" cx="168.99" cy="324.78" r="36.47"/><circle class="cls-2" cx="65.29" cy="145.18" r="36.47"/><circle class="cls-2" cx="377.87" cy="503.72" r="36.47"/><circle class="cls-2" cx="429.72" cy="413.91" r="36.47"/><circle class="cls-2" cx="533.42" cy="234.31" r="36.47"/><circle class="cls-2" cx="481.57" cy="324.11" r="36.47"/><circle class="cls-2" cx="585.27" cy="144.5" r="36.47"/><polygon class="cls-3" points="584.18 141.75 584.18 141.75 584.18 141.75 584.18 141.75 584.18 141.75 584.18 141.75 584.18 141.75 584.18 141.75 584.18 141.75 584.18 141.75 584.18 141.75 584.18 141.75 584.18 141.75 584.18 141.75 584.18 141.75 584.18 141.75 584.18 141.75 584.18 141.75 584.18 141.75 584.18 141.75 584.18 141.75 584.18 141.75 584.18 141.75 584.18 141.75 584.18 141.75 584.18 141.75 584.18 141.75 584.18 141.75 584.18 141.75 584.18 141.75 584.18 141.75 584.18 141.75 584.18 141.75 584.18 141.75 584.18 141.75 584.18 141.75 584.18 141.75 584.18 141.75 584.18 141.75 584.18 141.75 584.18 141.75 584.18 141.75 584.18 141.75 584.18 141.75 584.18 141.75 584.18 141.75 584.18 141.75 584.18 141.75 584.18 141.75 584.18 141.75 584.18 141.75 584.18 141.75 584.18 141.75 584.18 141.75 584.18 141.75 584.18 141.75 584.18 141.75 584.18 141.75 584.18 141.75 584.18 141.75 584.18 141.75 584.18 141.75 584.18 141.75 584.18 141.75 584.18 141.75 584.18 141.75 584.18 141.75 584.18 141.75 584.18 141.75 584.18 141.75 584.18 141.75 584.18 141.75 584.18 141.75 584.18 141.75 584.18 141.75 584.18 141.75 584.18 141.75 584.18 141.75 584.18 141.75 584.18 141.75 584.18 141.75 584.18 141.75 584.18 141.75 584.18 141.75 584.18 141.75 584.18 141.75 584.18 141.75 584.18 141.75 584.18 141.75 584.18 141.75"/><g class="cls-10"><path class="cls-5" d="M558.55,145a12.09,12.09,0,0,0,1.67-4c.7-2.75,1.45-5.13,2.68-6.5a1.12,1.12,0,0,1,1-.44c1.37,0,1.41,1.37,1.41,1.65a5,5,0,0,1-.1.74.13.13,0,0,0,.14.13,2.76,2.76,0,0,0,1.35-.57c.35-.28.53-.48.53-1.29,0-1.08-.55-1.89-1.66-1.89a6.17,6.17,0,0,0-4.34,2.12c-1.59,1.63-2.52,5.21-2.9,6.7a13.27,13.27,0,0,1-1.11,3.18,8.74,8.74,0,0,1-.93,1.37c-.54.5-.74.85-.74,1s0,.12.18.12a2.43,2.43,0,0,0,1-.41,3,3,0,0,0,.84-.72,10.45,10.45,0,0,1,2.94.56,12,12,0,0,0,3,.57,5.43,5.43,0,0,0,3.87-2.08,2.75,2.75,0,0,0,.52-1.1.13.13,0,0,0-.14-.14,2.34,2.34,0,0,0-1.13.46c-.54.34-.58.46-.7.8a2.06,2.06,0,0,1-.3.59c-.16.24-.18.24-.47.24a13.34,13.34,0,0,1-3.26-.65,10.16,10.16,0,0,0-2.64-.48,3.62,3.62,0,0,0-.8.08"/><path class="cls-5" d="M572.65,149.53a1.67,1.67,0,0,1-1.53-1,4.63,4.63,0,0,1-.32-1.94,2.15,2.15,0,0,1,1.92-2.4,1.59,1.59,0,0,1,1.42.77,3.35,3.35,0,0,1,.35,1.92,3.11,3.11,0,0,1-.38,1.92,1.64,1.64,0,0,1-1.46.75m-1.89-4.38a5.59,5.59,0,0,1,.63-3,2.51,2.51,0,0,1,2.11-1.27,1.58,1.58,0,0,1,1.25.49.66.66,0,0,0-.64.67.66.66,0,1,0,1.32,0c0-.81-.58-1.53-2-1.53-2,0-4,1.84-4,4.83,0,3.6,1.69,4.68,3.22,4.68a3.11,3.11,0,0,0,3.17-3.11,3,3,0,0,0-3-3.08A2.23,2.23,0,0,0,570.76,145.15Z"/><path class="cls-5" d="M596.84,144.15c.28,0,.66,0,.66-.39s-.38-.4-.68-.4H585c-.29,0-.67,0-.67.4s.38.39.65.39h11.9m0-3.85c.3,0,.68,0,.68-.4s-.38-.39-.66-.39h-11.9c-.27,0-.65,0-.65.39s.38.4.67.4Z"/><path class="cls-5" d="M606.7,145.27l2.11-2.05c3.09-2.74,4.29-3.81,4.29-5.8a3.91,3.91,0,0,0-4.22-3.86,3.67,3.67,0,0,0-3.71,3.6,1,1,0,1,0,2.09.06,1,1,0,0,0-1.06-1,.76.76,0,0,0-.26,0,2.86,2.86,0,0,1,2.69-2c1.8,0,2.66,1.61,2.66,3.24a7.13,7.13,0,0,1-2.09,4.39l-3.81,4.25c-.22.22-.22.26-.22.74h7.37l.56-3.46h-.5a6.6,6.6,0,0,1-.44,1.77,6.41,6.41,0,0,1-1.88.16H606.7"/></g><polygon class="cls-3" points="532.63 235.76 532.63 235.76 532.63 235.76 532.64 235.76 532.63 235.76 532.63 235.76 532.64 235.76 532.63 235.76 532.63 235.76 532.63 235.76 532.63 235.76 532.63 235.76 532.63 235.76 532.63 235.76 532.63 235.76 532.64 235.76 532.64 235.76 532.63 235.76 532.63 235.76 532.63 235.76 532.63 235.76 532.63 235.76 532.63 235.76 532.63 235.76 532.63 235.76 532.64 235.76 532.63 235.76 532.64 235.76 532.63 235.76 532.63 235.76 532.63 235.76 532.63 235.76 532.63 235.76 532.63 235.76 532.64 235.76 532.63 235.76 532.63 235.76 532.63 235.76 532.63 235.76 532.63 235.76 532.63 235.76 532.63 235.76 532.64 235.76 532.64 235.76 532.63 235.76 532.64 235.76 532.63 235.76 532.63 235.76 532.63 235.76 532.64 235.76 532.63 235.76 532.63 235.76 532.63 235.76 532.63 235.76 532.63 235.76 532.63 235.76 532.63 235.76 532.64 235.76 532.63 235.76 532.64 235.76 532.63 235.76 532.63 235.76 532.63 235.76 532.63 235.76 532.63 235.76 532.63 235.76 532.63 235.76 532.63 235.76 532.63 235.76 532.63 235.76 532.63 235.76 532.63 235.76 532.63 235.76 532.63 235.76 532.63 235.76 532.63 235.76 532.63 235.76 532.63 235.76 532.63 235.76 532.63 235.76 532.63 235.76 532.63 235.76 532.63 235.76 532.63 235.76 532.63 235.76 532.63 235.76 532.63 235.76 532.63 235.76 532.64 235.76 532.63 235.76"/><g class="cls-11"><path class="cls-5" d="M507,239a11.92,11.92,0,0,0,1.67-4c.69-2.74,1.45-5.12,2.68-6.49a1.11,1.11,0,0,1,1-.44c1.37,0,1.41,1.37,1.41,1.65a5,5,0,0,1-.1.73.13.13,0,0,0,.14.14,2.72,2.72,0,0,0,1.35-.58c.36-.27.54-.47.54-1.29a1.66,1.66,0,0,0-1.67-1.88,6.17,6.17,0,0,0-4.33,2.12c-1.59,1.63-2.52,5.21-2.9,6.7a13.89,13.89,0,0,1-1.11,3.18,9.34,9.34,0,0,1-.94,1.37,2.26,2.26,0,0,0-.73,1s0,.12.18.12a2.46,2.46,0,0,0,1-.42,2.91,2.91,0,0,0,.83-.71,10.7,10.7,0,0,1,2.94.55,11.74,11.74,0,0,0,3,.58,5.45,5.45,0,0,0,3.88-2.09,2.59,2.59,0,0,0,.51-1.09.13.13,0,0,0-.14-.14,2.38,2.38,0,0,0-1.13.46c-.53.34-.57.46-.69.79a2,2,0,0,1-.3.6c-.16.24-.18.24-.48.24a13.12,13.12,0,0,1-3.26-.66,10,10,0,0,0-2.64-.47,4.22,4.22,0,0,0-.79.07"/><path class="cls-5" d="M524.57,235.3c.14-.16.14-.19.14-.55h-3.64a11.39,11.39,0,0,1-1.21-.06c-.73-.05-.75-.15-.8-.39h-.47l-.49,3h.48c0-.21.16-1.13.39-1.27a8.11,8.11,0,0,1,1.44-.08h3c-.45.58-1.16,1.44-1.45,1.83a9.1,9.1,0,0,0-2,5.43c0,.15,0,.79.65.79s.67-.63.67-.81v-.55c0-2.7.56-3.94,1.16-4.69l2.08-2.63"/><path class="cls-5" d="M545.3,238.16c.28,0,.66,0,.66-.4s-.38-.39-.68-.39H533.42c-.3,0-.68,0-.68.39s.38.4.66.4h11.9m0-3.85c.3,0,.68,0,.68-.4s-.38-.4-.66-.4H533.4c-.28,0-.66,0-.66.4s.38.4.68.4Z"/><path class="cls-5" d="M555.15,239.27l2.11-2c3.1-2.74,4.29-3.82,4.29-5.81a3.9,3.9,0,0,0-4.21-3.85,3.67,3.67,0,0,0-3.71,3.6,1,1,0,1,0,2.08.06,1,1,0,0,0-1.05-1,.76.76,0,0,0-.26,0,2.86,2.86,0,0,1,2.68-2c1.81,0,2.66,1.61,2.66,3.23a7.14,7.14,0,0,1-2.08,4.4l-3.82,4.25c-.21.22-.21.26-.21.73H561l.55-3.45h-.5a6.11,6.11,0,0,1-.43,1.76,6.44,6.44,0,0,1-1.89.16h-3.58"/></g><polygon class="cls-3" points="480.81 326.36 480.81 326.36 480.81 326.36 480.81 326.36 480.81 326.36 480.81 326.36 480.81 326.36 480.81 326.36 480.81 326.36 480.81 326.36 480.81 326.36 480.81 326.36 480.81 326.36 480.81 326.36 480.81 326.36 480.81 326.36 480.81 326.36 480.81 326.36 480.81 326.36 480.81 326.36 480.81 326.36 480.81 326.36 480.81 326.36 480.81 326.36 480.81 326.36 480.81 326.36 480.81 326.36 480.81 326.36 480.81 326.36 480.81 326.36 480.81 326.36 480.81 326.36 480.81 326.36 480.81 326.36 480.81 326.36 480.81 326.36 480.81 326.36 480.81 326.36 480.81 326.36 480.81 326.36 480.81 326.36 480.81 326.36 480.81 326.36 480.81 326.36 480.81 326.36 480.81 326.36 480.81 326.36 480.81 326.36 480.81 326.36 480.81 326.36 480.81 326.36 480.81 326.36 480.81 326.36 480.81 326.36 480.81 326.36 480.81 326.36 480.81 326.36 480.81 326.36 480.81 326.36 480.81 326.36 480.81 326.36 480.81 326.36 480.81 326.36 480.81 326.36 480.81 326.36 480.81 326.36 480.81 326.36 480.81 326.36 480.81 326.36 480.81 326.36 480.81 326.36 480.81 326.36 480.81 326.36 480.81 326.36 480.81 326.36 480.81 326.36 480.81 326.36 480.81 326.36 480.81 326.36 480.81 326.36 480.81 326.36 480.81 326.36 480.81 326.36 480.81 326.36 480.81 326.36 480.81 326.36 480.81 326.36 480.81 326.36 480.81 326.36 480.81 326.36"/><g class="cls-12"><path class="cls-5" d="M455.18,329.55a12.09,12.09,0,0,0,1.67-4c.69-2.74,1.45-5.13,2.68-6.5a1.13,1.13,0,0,1,1-.43c1.37,0,1.41,1.37,1.41,1.65a5,5,0,0,1-.1.73.13.13,0,0,0,.14.14,2.72,2.72,0,0,0,1.35-.58c.36-.28.54-.47.54-1.29a1.67,1.67,0,0,0-1.67-1.89,6.15,6.15,0,0,0-4.33,2.13c-1.59,1.63-2.52,5.21-2.9,6.69a13.56,13.56,0,0,1-1.11,3.18,8.39,8.39,0,0,1-.94,1.37,2.32,2.32,0,0,0-.73,1s0,.12.18.12a2.41,2.41,0,0,0,1-.42,2.91,2.91,0,0,0,.83-.71,10.34,10.34,0,0,1,2.94.55,11.74,11.74,0,0,0,3,.58,5.45,5.45,0,0,0,3.88-2.09,2.65,2.65,0,0,0,.51-1.09.12.12,0,0,0-.13-.14,2.37,2.37,0,0,0-1.14.46c-.53.33-.57.45-.69.79a2,2,0,0,1-.3.6c-.16.24-.18.24-.48.24a13.12,13.12,0,0,1-3.26-.66,10,10,0,0,0-2.64-.48,3.53,3.53,0,0,0-.79.08"/><path class="cls-5" d="M468.65,329.89l1.91,1.1a1.76,1.76,0,0,1,1.06,1.45c0,1-1.16,1.69-2.35,1.69a2.18,2.18,0,0,1-2.38-2,2.64,2.64,0,0,1,1.76-2.28M468,328a1.35,1.35,0,0,1-.75-1.1c0-.88,1-1.39,2-1.39a1.87,1.87,0,0,1,2,1.67c0,1.24-1.44,1.86-1.47,1.86s-.06,0-.15-.07Zm2.27,1.32c1.08-.53,1.78-1.18,1.78-2.14,0-1.35-1.41-2.07-2.75-2.07a2.57,2.57,0,0,0-2.79,2.32,2.09,2.09,0,0,0,.56,1.4,3.74,3.74,0,0,0,1.17.84c-.78.33-2.16,1.08-2.16,2.54s1.6,2.41,3.19,2.41c1.76,0,3.21-1.13,3.21-2.63a2.53,2.53,0,0,0-1.35-2.17Z"/><path class="cls-5" d="M493.47,328.76c.28,0,.66,0,.66-.4s-.38-.4-.68-.4H481.59c-.3,0-.68,0-.68.4s.38.4.66.4h11.9m0-3.86c.3,0,.68,0,.68-.39s-.38-.4-.66-.4h-11.9c-.28,0-.66,0-.66.4s.38.39.68.39Z"/><path class="cls-5" d="M503.33,329.87l2.1-2.05c3.1-2.74,4.29-3.81,4.29-5.8a3.9,3.9,0,0,0-4.21-3.85,3.67,3.67,0,0,0-3.71,3.59,1,1,0,1,0,2.08.06,1,1,0,0,0-1.05-1,.76.76,0,0,0-.26,0,2.87,2.87,0,0,1,2.68-2c1.81,0,2.66,1.61,2.66,3.24a7.12,7.12,0,0,1-2.08,4.39L502,330.67c-.21.21-.21.25-.21.73h7.37l.55-3.46h-.49a6.5,6.5,0,0,1-.44,1.77,6.44,6.44,0,0,1-1.89.16h-3.57"/></g><polygon class="cls-3" points="428.94 415.37 428.94 415.37 428.94 415.37 428.94 415.37 428.94 415.37 428.94 415.37 428.94 415.37 428.94 415.37 428.94 415.37 428.94 415.37 428.94 415.37 428.94 415.37 428.94 415.37 428.94 415.37 428.94 415.37 428.94 415.37 428.94 415.37 428.94 415.37 428.94 415.37 428.94 415.37 428.94 415.37 428.94 415.37 428.94 415.37 428.94 415.37 428.94 415.37 428.94 415.37 428.94 415.37 428.94 415.37 428.94 415.37 428.94 415.37 428.94 415.37 428.94 415.37 428.94 415.37 428.94 415.37 428.94 415.37 428.94 415.37 428.94 415.37 428.94 415.37 428.94 415.37 428.94 415.37 428.94 415.37 428.94 415.37 428.94 415.37 428.94 415.37 428.94 415.37 428.94 415.37 428.94 415.37 428.94 415.37 428.94 415.37 428.94 415.37 428.94 415.37 428.94 415.37 428.94 415.37 428.94 415.37 428.94 415.37 428.94 415.37 428.94 415.37 428.94 415.37 428.94 415.37 428.94 415.37 428.94 415.37 428.94 415.37 428.94 415.37 428.94 415.37 428.94 415.37 428.94 415.37 428.94 415.37 428.94 415.37 428.94 415.37 428.94 415.37 428.94 415.37 428.94 415.37 428.94 415.37 428.94 415.37 428.94 415.37 428.94 415.37 428.94 415.37 428.94 415.37 428.94 415.37 428.94 415.37 428.94 415.37 428.94 415.37 428.94 415.37 428.94 415.37 428.94 415.37 428.94 415.37 428.94 415.37 428.94 415.37 428.94 415.37 428.94 415.37"/><g class="cls-13"><path class="cls-5" d="M403.31,418.56a12.09,12.09,0,0,0,1.67-4c.7-2.74,1.45-5.13,2.68-6.5a1.12,1.12,0,0,1,1-.43c1.37,0,1.41,1.37,1.41,1.65a5,5,0,0,1-.1.73.13.13,0,0,0,.14.14,2.79,2.79,0,0,0,1.35-.58c.35-.28.53-.47.53-1.29a1.66,1.66,0,0,0-1.67-1.89,6.15,6.15,0,0,0-4.33,2.13c-1.59,1.63-2.52,5.21-2.9,6.69A13.12,13.12,0,0,1,402,418.4a9,9,0,0,1-.93,1.37,2.29,2.29,0,0,0-.74,1s0,.12.18.12a2.37,2.37,0,0,0,1-.42,3,3,0,0,0,.84-.72,10.82,10.82,0,0,1,2.94.56,11.58,11.58,0,0,0,3,.58,5.41,5.41,0,0,0,3.87-2.09,2.74,2.74,0,0,0,.52-1.09.13.13,0,0,0-.14-.14,2.3,2.3,0,0,0-1.13.46c-.54.33-.58.45-.7.79a2,2,0,0,1-.3.6c-.16.23-.18.23-.47.23a12.88,12.88,0,0,1-3.26-.65,10.16,10.16,0,0,0-2.64-.48,3.62,3.62,0,0,0-.8.08"/><path class="cls-5" d="M417.29,419.86a1.57,1.57,0,0,1-1.45-.82,3.37,3.37,0,0,1-.32-1.86,3,3,0,0,1,.4-1.92,1.71,1.71,0,0,1,1.52-.78,1.54,1.54,0,0,1,1.35.81,4.25,4.25,0,0,1,.42,2c0,1.81-1,2.53-1.92,2.53m2-.69c0,3.44-1.71,4-2.55,4a2,2,0,0,1-1.41-.46.62.62,0,0,0,.61-.65.66.66,0,1,0-1.32,0c0,.94.79,1.53,2.14,1.53,2,0,3.86-1.88,3.86-4.85,0-3.45-1.53-4.66-3.15-4.66a3.14,3.14,0,0,0-2.22.84,2.8,2.8,0,0,0-1,2.26,3,3,0,0,0,3,3.07,2.25,2.25,0,0,0,2-1.36Z"/><path class="cls-5" d="M441.6,417.77c.28,0,.66,0,.66-.4s-.38-.4-.68-.4H429.72c-.29,0-.67,0-.67.4s.38.4.65.4h11.9m0-3.86c.3,0,.68,0,.68-.39s-.38-.4-.66-.4H429.7c-.27,0-.65,0-.65.4s.38.39.67.39Z"/><path class="cls-5" d="M451.46,418.88l2.1-2.05c3.1-2.74,4.3-3.81,4.3-5.8a3.91,3.91,0,0,0-4.22-3.85,3.67,3.67,0,0,0-3.71,3.59,1,1,0,1,0,2.08.06,1,1,0,0,0-1.05-1,.76.76,0,0,0-.26,0,2.88,2.88,0,0,1,2.69-2c1.8,0,2.66,1.61,2.66,3.24a7.13,7.13,0,0,1-2.09,4.39l-3.81,4.26c-.22.21-.22.25-.22.73h7.37l.56-3.46h-.5a6.5,6.5,0,0,1-.44,1.77,6.41,6.41,0,0,1-1.88.16h-3.58"/></g><polygon class="cls-3" points="377.66 503.75 377.66 503.75 377.66 503.75 377.66 503.75 377.66 503.75 377.66 503.75 377.66 503.75 377.66 503.75 377.66 503.75 377.66 503.75 377.66 503.75 377.66 503.75 377.66 503.75 377.66 503.75 377.66 503.75 377.66 503.75 377.66 503.75 377.66 503.75 377.66 503.75 377.66 503.75 377.66 503.75 377.66 503.75 377.66 503.75 377.66 503.75 377.66 503.75 377.66 503.75 377.66 503.75 377.66 503.75 377.66 503.75 377.66 503.75 377.66 503.75 377.66 503.75 377.66 503.75 377.66 503.75 377.66 503.75 377.66 503.75 377.66 503.75 377.66 503.75 377.66 503.75 377.66 503.75 377.66 503.75 377.66 503.75 377.66 503.75 377.66 503.75 377.66 503.75 377.66 503.75 377.66 503.75 377.66 503.75 377.66 503.75 377.66 503.75 377.66 503.75 377.66 503.75 377.66 503.75 377.66 503.75 377.66 503.75 377.66 503.75 377.66 503.75 377.66 503.75 377.66 503.75 377.66 503.75 377.66 503.75 377.66 503.75 377.66 503.75 377.66 503.75 377.66 503.75 377.66 503.75 377.66 503.75 377.66 503.75 377.66 503.75 377.66 503.75 377.66 503.75 377.66 503.75 377.66 503.75 377.66 503.75 377.66 503.75 377.66 503.75 377.66 503.75 377.66 503.75 377.66 503.75 377.66 503.75 377.66 503.75 377.66 503.75 377.66 503.75 377.66 503.75 377.66 503.75 377.66 503.75 377.66 503.75 377.66 503.75 377.66 503.75 377.66 503.75 377.66 503.75"/><g class="cls-14"><path class="cls-5" d="M348.05,506.94a12.09,12.09,0,0,0,1.67-4c.7-2.74,1.45-5.13,2.68-6.5a1.14,1.14,0,0,1,1-.43c1.37,0,1.4,1.37,1.4,1.65a5.52,5.52,0,0,1-.09.73.13.13,0,0,0,.14.14,2.79,2.79,0,0,0,1.35-.58c.35-.28.53-.47.53-1.29a1.66,1.66,0,0,0-1.67-1.89,6.15,6.15,0,0,0-4.33,2.13c-1.59,1.63-2.52,5.21-2.9,6.69a13.12,13.12,0,0,1-1.11,3.18,9,9,0,0,1-.93,1.37,2.29,2.29,0,0,0-.74,1s0,.12.18.12a2.37,2.37,0,0,0,1-.42,3.05,3.05,0,0,0,.84-.71,10.4,10.4,0,0,1,2.94.55,11.58,11.58,0,0,0,3,.58,5.41,5.41,0,0,0,3.87-2.09,2.74,2.74,0,0,0,.52-1.09.13.13,0,0,0-.14-.14,2.3,2.3,0,0,0-1.13.46c-.54.33-.58.45-.7.79a2,2,0,0,1-.3.6c-.16.24-.18.24-.47.24a13,13,0,0,1-3.26-.66,10.17,10.17,0,0,0-2.65-.48,3.59,3.59,0,0,0-.79.08"/><path class="cls-5" d="M362.93,502.85c0-.38,0-.39-.41-.39a3.83,3.83,0,0,1-2.73.89v.5a4.61,4.61,0,0,0,2-.39v7.09c0,.46,0,.64-1.39.64h-.53v.5c.25,0,2-.06,2.47-.06s2.19.05,2.49.06v-.5h-.53c-1.39,0-1.39-.18-1.39-.64v-7.7"/><path class="cls-5" d="M370.12,511.58a1.82,1.82,0,0,1-1.76-1.52,14,14,0,0,1-.2-3,11.78,11.78,0,0,1,.21-2.83,1.81,1.81,0,0,1,3.48-.13,11.37,11.37,0,0,1,.24,3,14.54,14.54,0,0,1-.19,2.94,1.82,1.82,0,0,1-1.78,1.57m3.23-4.33a6.21,6.21,0,0,0-.82-3.6,2.88,2.88,0,0,0-2.41-1.19c-3.22,0-3.22,3.79-3.22,4.79s0,4.72,3.22,4.72S373.35,508.26,373.35,507.25Z"/><path class="cls-5" d="M394.34,506.15c.28,0,.66,0,.66-.4s-.38-.4-.68-.4H382.46c-.29,0-.67,0-.67.4s.38.4.65.4h11.9m0-3.86c.3,0,.68,0,.68-.39s-.38-.4-.66-.4h-11.9c-.27,0-.65,0-.65.4s.38.39.67.39Z"/><path class="cls-5" d="M404.2,507.26l2.1-2.05c3.1-2.74,4.29-3.81,4.29-5.8a3.9,3.9,0,0,0-4.21-3.85,3.67,3.67,0,0,0-3.71,3.59,1,1,0,1,0,2.08.06,1,1,0,0,0-1.05-1,.76.76,0,0,0-.26,0,2.86,2.86,0,0,1,2.68-2c1.81,0,2.67,1.6,2.67,3.23a7.13,7.13,0,0,1-2.09,4.39l-3.81,4.26c-.22.21-.22.25-.22.73H410l.55-3.46h-.49a6.5,6.5,0,0,1-.44,1.77,6.44,6.44,0,0,1-1.89.16H404.2"/></g><polygon class="cls-3" points="272.47 504.04 272.47 504.04 272.47 504.04 272.47 504.04 272.47 504.04 272.47 504.04 272.47 504.04 272.47 504.04 272.47 504.04 272.47 504.04 272.47 504.04 272.47 504.04 272.47 504.04 272.47 504.04 272.47 504.04 272.47 504.04 272.47 504.04 272.47 504.04 272.47 504.04 272.47 504.04 272.47 504.04 272.47 504.04 272.47 504.04 272.47 504.04 272.47 504.04 272.47 504.04 272.47 504.04 272.47 504.04 272.47 504.04 272.47 504.04 272.47 504.04 272.47 504.04 272.47 504.04 272.47 504.04 272.47 504.04 272.47 504.04 272.47 504.04 272.47 504.04 272.47 504.04 272.47 504.04 272.47 504.04 272.47 504.04 272.47 504.04 272.47 504.04 272.47 504.04 272.47 504.04 272.47 504.04 272.47 504.04 272.47 504.04 272.47 504.04 272.47 504.04 272.47 504.04 272.47 504.04 272.47 504.04 272.47 504.04 272.47 504.04 272.47 504.04 272.47 504.04 272.47 504.04 272.47 504.04 272.47 504.04 272.47 504.04 272.47 504.04 272.47 504.04 272.47 504.04 272.47 504.04 272.47 504.04 272.47 504.04 272.47 504.04 272.47 504.04 272.47 504.04 272.47 504.04 272.47 504.04 272.47 504.04 272.47 504.04 272.47 504.04 272.47 504.04 272.47 504.04 272.47 504.04 272.47 504.04 272.47 504.04 272.47 504.04 272.47 504.04 272.47 504.04 272.47 504.04 272.47 504.04 272.47 504.04 272.47 504.04 272.47 504.04 272.47 504.04 272.47 504.04"/><g class="cls-15"><path class="cls-5" d="M242.86,506.94a12.09,12.09,0,0,0,1.67-4c.69-2.74,1.45-5.13,2.68-6.5a1.13,1.13,0,0,1,1-.43c1.37,0,1.41,1.37,1.41,1.65a5,5,0,0,1-.1.73.13.13,0,0,0,.14.14A2.72,2.72,0,0,0,251,498c.36-.28.54-.47.54-1.29a1.67,1.67,0,0,0-1.67-1.89,6.15,6.15,0,0,0-4.33,2.13c-1.59,1.63-2.52,5.21-2.9,6.69a13.56,13.56,0,0,1-1.11,3.18,8.39,8.39,0,0,1-.94,1.37,2.32,2.32,0,0,0-.73,1s0,.12.18.12a2.41,2.41,0,0,0,1-.42,2.91,2.91,0,0,0,.83-.71,10.34,10.34,0,0,1,2.94.55,11.74,11.74,0,0,0,3,.58,5.45,5.45,0,0,0,3.88-2.09,2.65,2.65,0,0,0,.51-1.09.12.12,0,0,0-.13-.14,2.37,2.37,0,0,0-1.14.46c-.53.33-.57.45-.69.79a2,2,0,0,1-.3.6c-.16.24-.18.24-.48.24a13.12,13.12,0,0,1-3.26-.66,10,10,0,0,0-2.64-.48,3.53,3.53,0,0,0-.79.08"/><path class="cls-5" d="M257.74,502.85c0-.38,0-.39-.42-.39a3.81,3.81,0,0,1-2.72.89v.5a4.55,4.55,0,0,0,2-.39v7.09c0,.46,0,.64-1.39.64h-.53v.5c.26,0,2-.06,2.48-.06s2.18.05,2.49.06v-.5h-.53c-1.39,0-1.39-.18-1.39-.64v-7.7"/><path class="cls-5" d="M265.64,502.85c0-.38,0-.39-.42-.39a3.81,3.81,0,0,1-2.72.89v.5a4.55,4.55,0,0,0,2-.39v7.09c0,.46,0,.64-1.39.64h-.53v.5c.26,0,2-.06,2.48-.06s2.18.05,2.49.06v-.5H267c-1.39,0-1.39-.18-1.39-.64v-7.7"/><path class="cls-5" d="M289.15,506.15c.28,0,.66,0,.66-.4s-.38-.4-.68-.4H277.27c-.3,0-.68,0-.68.4s.38.4.66.4h11.9m0-3.86c.3,0,.68,0,.68-.39s-.38-.4-.66-.4h-11.9c-.28,0-.66,0-.66.4s.38.39.68.39Z"/><path class="cls-5" d="M302.24,501.8a3.84,3.84,0,0,0,2.79-3.5c0-1.63-1.75-2.74-3.66-2.74s-3.52,1.19-3.52,2.7a1,1,0,1,0,2,0c0-1-.93-1-1.23-1a3.18,3.18,0,0,1,2.64-1.23c.81,0,1.91.43,1.91,2.22a5,5,0,0,1-.56,2.27,1.93,1.93,0,0,1-1.77,1c-.16,0-.63.06-.77.06s-.3,0-.3.24.14.22.48.22h.87c1.63,0,2.36,1.35,2.36,3.29,0,2.71-1.37,3.28-2.24,3.28a3.63,3.63,0,0,1-3-1.51,1.09,1.09,0,0,0,1.31-1.09,1.11,1.11,0,1,0-2.22,0c0,1.81,1.84,3.12,4,3.12a4.06,4.06,0,0,0,4.23-3.84,3.82,3.82,0,0,0-3.32-3.59"/></g><polygon class="cls-3" points="220.62 414.56 220.62 414.56 220.62 414.56 220.62 414.56 220.62 414.56 220.62 414.56 220.62 414.56 220.62 414.56 220.62 414.56 220.62 414.56 220.62 414.56 220.62 414.56 220.62 414.56 220.62 414.56 220.62 414.56 220.62 414.56 220.62 414.56 220.62 414.56 220.62 414.56 220.62 414.56 220.62 414.56 220.62 414.56 220.62 414.56 220.62 414.56 220.62 414.56 220.62 414.56 220.62 414.56 220.62 414.56 220.62 414.56 220.62 414.56 220.62 414.56 220.62 414.56 220.62 414.56 220.62 414.56 220.62 414.56 220.62 414.56 220.62 414.56 220.62 414.56 220.62 414.56 220.62 414.56 220.62 414.56 220.62 414.56 220.62 414.56 220.62 414.56 220.62 414.56 220.62 414.56 220.62 414.56 220.62 414.56 220.62 414.56 220.62 414.56 220.62 414.56 220.62 414.56 220.62 414.56 220.62 414.56 220.62 414.56 220.62 414.56 220.62 414.56 220.62 414.56 220.62 414.56 220.62 414.56 220.62 414.56 220.62 414.56 220.62 414.56 220.62 414.56 220.62 414.56 220.62 414.56 220.62 414.56 220.62 414.56 220.62 414.56 220.62 414.56 220.62 414.56 220.62 414.56 220.62 414.56 220.62 414.56 220.62 414.56 220.62 414.56 220.62 414.56 220.62 414.56 220.62 414.56 220.62 414.56 220.62 414.56 220.62 414.56 220.62 414.56 220.62 414.56 220.62 414.56 220.62 414.56 220.62 414.56 220.62 414.56 220.62 414.56 220.62 414.56 220.62 414.56"/><g class="cls-16"><path class="cls-5" d="M191,417.46a11.92,11.92,0,0,0,1.67-4c.69-2.74,1.45-5.12,2.68-6.49a1.11,1.11,0,0,1,1-.44c1.38,0,1.41,1.37,1.41,1.65a5.52,5.52,0,0,1-.09.73.12.12,0,0,0,.13.14,2.78,2.78,0,0,0,1.35-.57c.36-.28.54-.48.54-1.3a1.65,1.65,0,0,0-1.67-1.88,6.17,6.17,0,0,0-4.33,2.12c-1.59,1.63-2.52,5.21-2.9,6.7a13.89,13.89,0,0,1-1.11,3.18,10.07,10.07,0,0,1-.93,1.37c-.54.49-.74.85-.74.95s0,.12.18.12a2.41,2.41,0,0,0,1-.42,2.88,2.88,0,0,0,.84-.71,10.83,10.83,0,0,1,2.94.55,11.58,11.58,0,0,0,3,.58,5.43,5.43,0,0,0,3.87-2.09,2.68,2.68,0,0,0,.52-1.09.13.13,0,0,0-.14-.14,2.3,2.3,0,0,0-1.13.46c-.54.34-.58.46-.7.79a2,2,0,0,1-.3.6c-.16.24-.18.24-.47.24a13,13,0,0,1-3.26-.66,10.22,10.22,0,0,0-2.65-.47,4.29,4.29,0,0,0-.79.07"/><path class="cls-5" d="M205.89,413.37c0-.38,0-.39-.41-.39a3.79,3.79,0,0,1-2.73.89v.5a4.61,4.61,0,0,0,2-.39v7.09c0,.46,0,.64-1.39.64h-.53v.5c.25,0,2,0,2.47,0l2.49,0v-.5h-.53c-1.39,0-1.39-.18-1.39-.64v-7.7"/><path class="cls-5" d="M216.16,419.68h-.48a3.23,3.23,0,0,1-.36,1.27A7.43,7.43,0,0,1,214,421h-2.56c1.46-1.29,1.94-1.68,2.78-2.34,1-.82,2-1.68,2-3,0-1.68-1.48-2.71-3.26-2.71a2.7,2.7,0,0,0-2.89,2.49.74.74,0,1,0,1.47,0c0-.25-.09-.74-.82-.74a2.2,2.2,0,0,1,2-1.29,2.08,2.08,0,0,1,2.12,2.21,4.2,4.2,0,0,1-1.31,2.67l-3.35,3.31c-.14.13-.14.15-.14.54h5.73l.42-2.53"/><path class="cls-5" d="M237.3,416.67c.28,0,.66,0,.66-.4s-.38-.39-.68-.39H225.42c-.3,0-.67,0-.67.39s.37.4.65.4h11.9m0-3.85c.3,0,.68,0,.68-.4s-.38-.4-.66-.4H225.4c-.28,0-.65,0-.65.4s.37.4.67.4Z"/><path class="cls-5" d="M250.39,412.32a3.84,3.84,0,0,0,2.79-3.5c0-1.63-1.75-2.74-3.66-2.74s-3.52,1.19-3.52,2.7a1,1,0,1,0,2,0c0-1-.93-1-1.23-1a3.23,3.23,0,0,1,2.64-1.23c.82,0,1.91.43,1.91,2.22a5,5,0,0,1-.56,2.27,1.92,1.92,0,0,1-1.77,1c-.15,0-.63.06-.77.06s-.3,0-.3.24.14.22.48.22h.87c1.63,0,2.37,1.35,2.37,3.3,0,2.7-1.37,3.27-2.25,3.27a3.61,3.61,0,0,1-3-1.51,1.11,1.11,0,1,0,.2-2.2,1.06,1.06,0,0,0-1.11,1.15c0,1.81,1.85,3.12,4,3.12a4,4,0,0,0,4.23-3.83,3.84,3.84,0,0,0-3.32-3.6"/></g><polygon class="cls-3" points="168.77 325.82 168.77 325.82 168.77 325.82 168.77 325.82 168.77 325.82 168.77 325.82 168.77 325.82 168.77 325.82 168.77 325.82 168.77 325.82 168.77 325.82 168.77 325.82 168.77 325.82 168.77 325.82 168.77 325.82 168.77 325.82 168.77 325.82 168.77 325.82 168.77 325.82 168.77 325.82 168.77 325.82 168.77 325.82 168.77 325.82 168.77 325.82 168.77 325.82 168.77 325.82 168.77 325.82 168.77 325.82 168.77 325.82 168.77 325.82 168.77 325.82 168.77 325.82 168.77 325.82 168.77 325.82 168.77 325.82 168.77 325.82 168.77 325.82 168.77 325.82 168.77 325.82 168.77 325.82 168.77 325.82 168.77 325.82 168.77 325.82 168.77 325.82 168.77 325.82 168.77 325.82 168.77 325.82 168.77 325.82 168.77 325.82 168.77 325.82 168.77 325.82 168.77 325.82 168.77 325.82 168.77 325.82 168.77 325.82 168.77 325.82 168.77 325.82 168.77 325.82 168.77 325.82 168.77 325.82 168.77 325.82 168.77 325.82 168.77 325.82 168.77 325.82 168.77 325.82 168.77 325.82 168.77 325.82 168.77 325.82 168.77 325.82 168.77 325.82 168.77 325.82 168.77 325.82 168.77 325.82 168.77 325.82 168.77 325.82 168.77 325.82 168.77 325.82 168.77 325.82 168.77 325.82 168.77 325.82 168.77 325.82 168.77 325.82 168.77 325.82 168.77 325.82 168.77 325.82 168.77 325.82 168.77 325.82 168.77 325.82 168.77 325.82 168.77 325.82 168.77 325.82"/><g class="cls-17"><path class="cls-5" d="M139.16,329a12.09,12.09,0,0,0,1.67-4c.7-2.74,1.45-5.13,2.68-6.5a1.12,1.12,0,0,1,1-.44c1.37,0,1.41,1.38,1.41,1.65a5,5,0,0,1-.1.74.13.13,0,0,0,.14.14,2.79,2.79,0,0,0,1.35-.58c.35-.28.53-.48.53-1.29,0-1.07-.55-1.89-1.66-1.89a6.15,6.15,0,0,0-4.34,2.13c-1.59,1.63-2.52,5.2-2.9,6.69a13.12,13.12,0,0,1-1.11,3.18,8.3,8.3,0,0,1-.93,1.37,2.29,2.29,0,0,0-.74,1s0,.12.18.12a2.37,2.37,0,0,0,1-.42,3,3,0,0,0,.84-.72,10.45,10.45,0,0,1,2.94.56,11.66,11.66,0,0,0,3,.58,5.44,5.44,0,0,0,3.87-2.09,2.74,2.74,0,0,0,.52-1.09.13.13,0,0,0-.14-.14,2.34,2.34,0,0,0-1.13.46c-.54.33-.58.45-.7.79a2,2,0,0,1-.3.6c-.16.23-.18.23-.47.23a12.88,12.88,0,0,1-3.26-.65,10.16,10.16,0,0,0-2.64-.48,3.62,3.62,0,0,0-.8.08"/><path class="cls-5" d="M154.05,324.91c0-.37,0-.39-.42-.39a3.8,3.8,0,0,1-2.73.9v.5a4.59,4.59,0,0,0,2-.39v7.09c0,.46,0,.64-1.39.64H151v.5c.25,0,2-.06,2.47-.06s2.19.05,2.49.06v-.5h-.52c-1.39,0-1.39-.18-1.39-.64v-7.71"/><path class="cls-5" d="M161.08,329.11c1.09,0,1.87.76,1.87,2.24,0,1.73-1,2.24-1.81,2.24a3,3,0,0,1-2.37-1,.76.76,0,0,0,.81-.78.77.77,0,1,0-1.54,0c0,1.31,1.44,2.16,3.13,2.16a3,3,0,0,0,3.26-2.69,2.75,2.75,0,0,0-2.42-2.49,2.65,2.65,0,0,0,2-2.42c0-1.09-1.26-1.92-2.81-1.92s-2.72.76-2.72,1.87a.72.72,0,0,0,1.43,0,.71.71,0,0,0-.71-.73,2.65,2.65,0,0,1,2-.76,1.39,1.39,0,0,1,1.5,1.51,2.67,2.67,0,0,1-.55,1.66,1.82,1.82,0,0,1-1.55.6,2.11,2.11,0,0,0-.44,0,.16.16,0,0,0-.14.18c0,.19.13.19.36.19h.75"/><path class="cls-5" d="M185.45,328.22c.28,0,.66,0,.66-.4s-.38-.4-.68-.4H173.57c-.29,0-.67,0-.67.4s.38.4.65.4h11.9m0-3.86c.3,0,.68,0,.68-.39s-.38-.4-.66-.4h-11.9c-.27,0-.65,0-.65.4s.38.39.67.39Z"/><path class="cls-5" d="M198.55,323.87a3.83,3.83,0,0,0,2.78-3.5c0-1.63-1.75-2.74-3.66-2.74s-3.51,1.19-3.51,2.7a1,1,0,0,0,1,1,1,1,0,0,0,1-1c0-1-.93-1-1.23-1a3.22,3.22,0,0,1,2.64-1.24c.82,0,1.91.44,1.91,2.23a5,5,0,0,1-.55,2.26,1.93,1.93,0,0,1-1.77,1c-.16,0-.64.06-.78.06s-.3,0-.3.24.14.21.48.21h.87c1.63,0,2.37,1.36,2.37,3.3,0,2.7-1.37,3.28-2.25,3.28a3.63,3.63,0,0,1-3-1.51,1.09,1.09,0,0,0,1.32-1.09,1.12,1.12,0,1,0-2.23,0c0,1.81,1.85,3.12,4,3.12a4.06,4.06,0,0,0,4.24-3.84,3.83,3.83,0,0,0-3.32-3.59"/></g><polygon class="cls-3" points="116.92 235.63 116.92 235.63 116.92 235.63 116.92 235.63 116.92 235.63 116.92 235.63 116.92 235.63 116.92 235.63 116.92 235.63 116.92 235.63 116.92 235.63 116.92 235.63 116.92 235.63 116.92 235.63 116.92 235.63 116.92 235.63 116.92 235.63 116.92 235.63 116.92 235.63 116.92 235.63 116.92 235.63 116.92 235.63 116.92 235.63 116.92 235.63 116.92 235.63 116.92 235.63 116.92 235.63 116.92 235.63 116.92 235.63 116.92 235.63 116.92 235.63 116.92 235.63 116.92 235.63 116.92 235.63 116.92 235.63 116.92 235.63 116.92 235.63 116.92 235.63 116.92 235.63 116.92 235.63 116.92 235.63 116.92 235.63 116.92 235.63 116.92 235.63 116.92 235.63 116.92 235.63 116.92 235.63 116.92 235.63 116.92 235.63 116.92 235.63 116.92 235.63 116.92 235.63 116.92 235.63 116.92 235.63 116.92 235.63 116.92 235.63 116.92 235.63 116.92 235.63 116.92 235.63 116.92 235.63 116.92 235.63 116.92 235.63 116.92 235.63 116.92 235.63 116.92 235.63 116.92 235.63 116.92 235.63 116.92 235.63 116.92 235.63 116.92 235.63 116.92 235.63 116.92 235.63 116.92 235.63 116.92 235.63 116.92 235.63 116.92 235.63 116.92 235.63 116.92 235.63 116.92 235.63 116.92 235.63 116.92 235.63 116.92 235.63 116.92 235.63 116.92 235.63 116.92 235.63 116.92 235.63 116.92 235.63 116.92 235.63 116.92 235.63 116.92 235.63 116.92 235.63"/><g class="cls-18"><path class="cls-5" d="M87.31,238.53a11.67,11.67,0,0,0,1.67-4c.7-2.74,1.45-5.13,2.68-6.5a1.14,1.14,0,0,1,1-.43c1.37,0,1.41,1.37,1.41,1.65a5,5,0,0,1-.1.73.13.13,0,0,0,.14.14,2.75,2.75,0,0,0,1.35-.58c.36-.28.54-.47.54-1.29a1.67,1.67,0,0,0-1.67-1.89A6.12,6.12,0,0,0,90,228.5c-1.59,1.63-2.53,5.21-2.91,6.7A12.78,12.78,0,0,1,86,238.37a8.8,8.8,0,0,1-.93,1.38c-.54.49-.74.85-.74.95s0,.12.18.12a2.43,2.43,0,0,0,1-.42,3.2,3.2,0,0,0,.83-.71,10.4,10.4,0,0,1,2.94.55,11.66,11.66,0,0,0,3,.58,5.41,5.41,0,0,0,3.87-2.09,2.68,2.68,0,0,0,.52-1.09.13.13,0,0,0-.14-.14,2.34,2.34,0,0,0-1.13.46c-.54.34-.58.45-.7.79a2.06,2.06,0,0,1-.29.6c-.16.24-.18.24-.48.24a13,13,0,0,1-3.26-.66,10.16,10.16,0,0,0-2.64-.48,3.62,3.62,0,0,0-.8.08"/><path class="cls-5" d="M102.2,234.44c0-.38,0-.39-.42-.39a3.83,3.83,0,0,1-2.73.89v.5a4.59,4.59,0,0,0,2-.39v7.09c0,.46,0,.64-1.39.64h-.53v.5c.25,0,2-.06,2.48-.06s2.18.05,2.49.06v-.5h-.53c-1.39,0-1.39-.18-1.39-.64v-7.7"/><path class="cls-5" d="M110.17,235.41v5.09h-3.68Zm2.62,5.59v-.5h-1.54v-6.2c0-.3,0-.39-.3-.39a.35.35,0,0,0-.37.19l-4.6,6.4v.5h4.09v1.14c0,.47,0,.64-1.13.64h-.37v.5c.69,0,1.58-.06,2.08-.06s1.41,0,2.1.06v-.5h-.37c-1.13,0-1.13-.17-1.13-.64V241Z"/><path class="cls-5" d="M133.61,237.74c.27,0,.65,0,.65-.4s-.38-.4-.67-.4H121.73c-.3,0-.68,0-.68.4s.38.4.66.4h11.9m0-3.86c.29,0,.67,0,.67-.39s-.38-.4-.65-.4h-11.9c-.28,0-.66,0-.66.4s.38.39.68.39Z"/><path class="cls-5" d="M146.7,233.39a3.83,3.83,0,0,0,2.78-3.5c0-1.63-1.75-2.74-3.65-2.74s-3.52,1.19-3.52,2.7a1,1,0,1,0,2,0c0-1-.93-1-1.23-1a3.21,3.21,0,0,1,2.65-1.23c.81,0,1.9.43,1.9,2.22a5,5,0,0,1-.55,2.27,1.93,1.93,0,0,1-1.77,1c-.16,0-.64.06-.78.06s-.3,0-.3.24.14.22.48.22h.88c1.63,0,2.36,1.35,2.36,3.29,0,2.71-1.37,3.28-2.24,3.28a3.61,3.61,0,0,1-3-1.51,1.09,1.09,0,0,0,1.31-1.09,1.12,1.12,0,1,0-2.23,0c0,1.81,1.85,3.12,4,3.12A4.06,4.06,0,0,0,150,237a3.82,3.82,0,0,0-3.32-3.59"/></g><polygon class="cls-3" points="65.08 144.86 65.08 144.86 65.08 144.86 65.08 144.86 65.08 144.86 65.08 144.86 65.08 144.86 65.08 144.86 65.08 144.86 65.08 144.86 65.08 144.86 65.08 144.86 65.08 144.86 65.08 144.86 65.08 144.86 65.08 144.86 65.08 144.86 65.08 144.86 65.08 144.86 65.08 144.86 65.08 144.86 65.08 144.86 65.08 144.86 65.08 144.86 65.08 144.86 65.08 144.86 65.08 144.86 65.08 144.86 65.08 144.86 65.08 144.86 65.08 144.86 65.08 144.86 65.08 144.86 65.08 144.86 65.08 144.86 65.08 144.86 65.08 144.86 65.08 144.86 65.08 144.86 65.08 144.86 65.08 144.86 65.08 144.86 65.08 144.86 65.08 144.86 65.08 144.86 65.08 144.86 65.08 144.86 65.08 144.86 65.08 144.86 65.08 144.86 65.08 144.86 65.08 144.86 65.08 144.86 65.08 144.86 65.08 144.86 65.08 144.86 65.08 144.86 65.08 144.86 65.08 144.86 65.08 144.86 65.08 144.86 65.08 144.86 65.08 144.86 65.08 144.86 65.08 144.86 65.08 144.86 65.08 144.86 65.08 144.86 65.08 144.86 65.08 144.86 65.08 144.86 65.08 144.86 65.08 144.86 65.08 144.86 65.08 144.86 65.08 144.86 65.08 144.86 65.08 144.86 65.08 144.86 65.08 144.86 65.08 144.86 65.08 144.86 65.08 144.86 65.08 144.86 65.08 144.86 65.08 144.86 65.08 144.86 65.08 144.86 65.08 144.86 65.08 144.86 65.08 144.86"/><g class="cls-19"><path class="cls-5" d="M35.47,148.05a11.66,11.66,0,0,0,1.66-4c.7-2.74,1.45-5.12,2.69-6.49a1.1,1.1,0,0,1,1-.44c1.37,0,1.41,1.37,1.41,1.65a5,5,0,0,1-.1.73.13.13,0,0,0,.14.14,2.75,2.75,0,0,0,1.35-.58c.36-.27.54-.47.54-1.29a1.66,1.66,0,0,0-1.67-1.88A6.14,6.14,0,0,0,38.19,138c-1.59,1.63-2.53,5.21-2.9,6.7a13.44,13.44,0,0,1-1.12,3.18,9.23,9.23,0,0,1-.93,1.37c-.54.49-.73.85-.73.95s0,.12.17.12a2.43,2.43,0,0,0,1-.42,3,3,0,0,0,.83-.71,10.7,10.7,0,0,1,2.94.55,11.66,11.66,0,0,0,3,.58,5.45,5.45,0,0,0,3.88-2.09,2.75,2.75,0,0,0,.51-1.09.13.13,0,0,0-.14-.14,2.38,2.38,0,0,0-1.13.46c-.54.34-.57.46-.69.79a2,2,0,0,1-.3.6c-.16.24-.18.24-.48.24a13,13,0,0,1-3.26-.66,10.13,10.13,0,0,0-2.64-.47,3.47,3.47,0,0,0-.79.07"/><path class="cls-5" d="M50.35,144c0-.38,0-.39-.42-.39a3.81,3.81,0,0,1-2.72.89v.5a4.55,4.55,0,0,0,2-.39v7.09c0,.46,0,.64-1.39.64H47.3v.5c.25,0,2-.05,2.48-.05l2.49.05v-.5h-.53c-1.39,0-1.39-.18-1.39-.64V144"/><path class="cls-5" d="M55.75,145a5,5,0,0,0,1.34.18A3.31,3.31,0,0,0,60,143.76c0-.15-.09-.19-.16-.19a.15.15,0,0,0-.11,0,5.67,5.67,0,0,1-2.1.4,5.43,5.43,0,0,1-2-.37c-.14-.07-.17-.07-.18-.07-.19,0-.19.15-.19.37v4.11c0,.23,0,.4.23.4s.14,0,.28-.19a2.36,2.36,0,0,1,1.93-.88,1.5,1.5,0,0,1,1.28.78,3.58,3.58,0,0,1,.33,1.79,3.3,3.3,0,0,1-.42,1.85,2,2,0,0,1-1.62.84,2.31,2.31,0,0,1-2.19-1.42.7.7,0,1,0-.59-.64,2.68,2.68,0,0,0,2.81,2.5A3.21,3.21,0,0,0,60.61,150a3,3,0,0,0-2.92-3,2.9,2.9,0,0,0-1.94.68V145"/><path class="cls-5" d="M81.76,147.26c.28,0,.65,0,.65-.4s-.37-.39-.67-.39H69.88c-.3,0-.68,0-.68.39s.38.4.66.4h11.9m0-3.85c.3,0,.67,0,.67-.4s-.37-.4-.65-.4H69.86c-.28,0-.66,0-.66.4s.38.4.68.4Z"/><path class="cls-5" d="M94.85,142.91a3.83,3.83,0,0,0,2.78-3.5c0-1.63-1.75-2.74-3.65-2.74s-3.52,1.19-3.52,2.7a1,1,0,1,0,2,0c0-1-.94-1-1.23-1a3.21,3.21,0,0,1,2.64-1.23c.81,0,1.91.43,1.91,2.22a5.1,5.1,0,0,1-.56,2.27,1.93,1.93,0,0,1-1.77,1c-.16,0-.64.06-.77.06s-.3,0-.3.24.14.22.47.22h.88c1.63,0,2.36,1.35,2.36,3.3,0,2.7-1.37,3.27-2.24,3.27a3.58,3.58,0,0,1-3-1.51,1.11,1.11,0,1,0,.2-2.2,1.07,1.07,0,0,0-1.12,1.15c0,1.81,1.85,3.12,4,3.12a4.05,4.05,0,0,0,4.23-3.83,3.84,3.84,0,0,0-3.32-3.6"/></g><line class="cls-20" x1="152.73" y1="54.27" x2="177.83" y2="54.27"/><polygon class="cls-21" points="166.01 60.63 165.32 58.75 177.63 54.27 165.32 49.79 166.01 47.91 183.48 54.27 166.01 60.63"/><line class="cls-20" x1="256.43" y1="53.63" x2="281.53" y2="53.63"/><polygon class="cls-21" points="269.7 59.99 269.02 58.11 281.33 53.63 269.02 49.15 269.7 47.27 287.18 53.63 269.7 59.99"/><line class="cls-20" x1="360.12" y1="53.63" x2="385.22" y2="53.63"/><polygon class="cls-21" points="373.4 59.99 372.72 58.11 385.03 53.63 372.72 49.15 373.4 47.27 390.87 53.63 373.4 59.99"/><line class="cls-20" x1="463.82" y1="53.63" x2="488.92" y2="53.63"/><polygon class="cls-21" points="477.1 59.99 476.41 58.11 488.72 53.63 476.41 49.15 477.1 47.27 494.57 53.63 477.1 59.99"/><line class="cls-20" x1="567.72" y1="176.29" x2="555.17" y2="198.03"/><polygon class="cls-21" points="555.58 184.61 557.55 184.96 555.27 197.86 565.31 189.44 566.59 190.97 552.35 202.92 555.58 184.61"/><line class="cls-20" x1="515.57" y1="266.63" x2="503.02" y2="288.36"/><polygon class="cls-21" points="503.42 274.94 505.39 275.29 503.12 288.19 513.15 279.77 514.44 281.3 500.19 293.26 503.42 274.94"/><line class="cls-20" x1="464.05" y1="355.85" x2="451.5" y2="377.59"/><polygon class="cls-21" points="451.91 364.17 453.88 364.52 451.6 377.42 461.64 369 462.92 370.53 448.68 382.48 451.91 364.17"/><line class="cls-20" x1="411.99" y1="446.03" x2="399.44" y2="467.77"/><polygon class="cls-21" points="399.84 454.35 401.81 454.7 399.54 467.6 409.57 459.18 410.86 460.71 396.61 472.66 399.84 454.35"/><line class="cls-20" x1="255.06" y1="472.66" x2="242.51" y2="450.93"/><polygon class="cls-21" points="253.93 457.99 252.64 459.52 242.6 451.1 244.88 464 242.91 464.35 239.68 446.03 253.93 457.99"/><line class="cls-20" x1="203.29" y1="383" x2="190.74" y2="361.27"/><polygon class="cls-21" points="202.16 368.32 200.88 369.86 190.84 361.44 193.11 374.34 191.15 374.68 187.92 356.37 202.16 368.32"/><line class="cls-20" x1="150.96" y1="292.35" x2="138.41" y2="270.62"/><polygon class="cls-21" points="149.83 277.68 148.54 279.21 138.5 270.79 140.78 283.69 138.81 284.04 135.58 265.72 149.83 277.68"/><line class="cls-20" x1="99.4" y1="203.06" x2="86.85" y2="181.32"/><polygon class="cls-21" points="98.27 188.38 96.98 189.91 86.95 181.49 89.22 194.39 87.25 194.74 84.03 176.43 98.27 188.38"/><line class="cls-20" x1="548.79" y1="86.96" x2="561.34" y2="108.7"/><polygon class="cls-21" points="549.92 101.64 551.2 100.11 561.24 108.53 558.96 95.63 560.93 95.28 564.16 113.59 549.92 101.64"/><line class="cls-20" x1="340.65" y1="504.39" x2="315.55" y2="504.39"/><polygon class="cls-21" points="327.38 498.03 328.06 499.91 315.75 504.39 328.06 508.87 327.38 510.75 309.9 504.39 327.38 498.03"/><line class="cls-20" x1="84.02" y1="112.58" x2="96.57" y2="90.84"/><polygon class="cls-21" points="96.17 104.26 94.2 103.91 96.48 91.01 86.44 99.43 85.16 97.9 99.4 85.95 96.17 104.26"/><path class="cls-20" d="M347.38,82s44.73,58.46,195.76,62.42"/><polygon class="cls-21" points="531.14 150.36 530.51 148.46 542.94 144.33 530.77 139.5 531.5 137.64 548.79 144.5 531.14 150.36"/><path class="cls-20" d="M183.79,291.13s28.26-68-43.82-200.75"/><polygon class="cls-21" points="151.14 97.79 149.81 99.28 140.02 90.57 141.93 103.54 139.95 103.83 137.25 85.43 151.14 97.79"/><path class="cls-20" d="M445.09,330.11s-73,9.5-151.94,138.32"/><polygon class="cls-21" points="293.98 455.05 295.94 455.45 293.29 468.29 303.56 460.16 304.81 461.73 290.22 473.26 293.98 455.05"/><path class="cls-20" d="M408.38,85.43s-156.36,224-133,376.91"/><polygon class="cls-21" points="267.51 451.53 269.27 450.58 275.46 462.13 278.14 449.3 280.1 449.71 276.3 467.91 267.51 451.53"/><path class="cls-20" d="M413.26,381.79S297.48,130.47,153.35,74.11"/><polygon class="cls-21" points="166.64 72.72 166.58 74.72 153.48 74.31 163.25 83.04 161.91 84.53 148.06 72.13 166.64 72.72"/><path class="cls-20" d="M154,235.68s272.13,23.43,392.92-73.26"/><polygon class="cls-21" points="541.5 174.63 539.8 173.58 546.7 162.44 534.25 166.54 533.63 164.64 551.29 158.82 541.5 174.63"/><path class="cls-20" d="M507.31,82S306.46,309.52,284.55,464.06"/><polygon class="cls-21" points="280.12 451.45 282.08 451.05 284.7 463.88 290.94 452.37 292.7 453.32 283.83 469.67 280.12 451.45"/><path class="cls-20" d="M367,468.72S270.37,178.8,147.48,82.51"/><polygon class="cls-21" points="160.62 84.98 159.99 86.88 147.56 82.72 154.41 93.89 152.71 94.94 142.99 79.08 160.62 84.98"/><path class="cls-20" d="M101.28,151.56s297.51,60.17,442.3,1.86"/><polygon class="cls-21" points="534.87 163.58 533.54 162.08 543.35 153.39 530.25 153.74 530.2 151.74 548.79 151.25 534.87 163.58"/><path class="cls-20" d="M524.49,18.4c1-1.47,13.5-18.38,33-17.36,2.75.15,14.55.77,22.75,10.49a30.08,30.08,0,0,1,6.82,19.91c-.29,10.26-6.1,19.86-15.22,26.17"/><polygon class="cls-21" points="577.1 44.9 578.78 45.99 571.65 56.97 584.17 53.14 584.76 55.06 566.98 60.49 577.1 44.9"/><path class="cls-20" d="M36.48,167.64c-1.79-.17-22.67-2.51-31.53-19.9-1.25-2.46-6.61-13-2.3-25a30.09,30.09,0,0,1,13.84-15.86c9-4.88,20.24-4.65,30.27.09"/><polygon class="cls-21" points="33.12 108.82 33.23 106.82 46.31 107.51 36.73 98.58 38.09 97.11 51.69 109.79 33.12 108.82"/><path class="cls-20" d="M412.09,517c.74,1.64,9.16,20.89-1.48,37.26-1.5,2.31-7.94,12.22-20.45,14.46a30.06,30.06,0,0,1-20.66-4.05c-8.74-5.38-14.14-15.21-15.05-26.26"/><polygon class="cls-21" points="362.83 549.32 361.05 550.23 355.1 538.55 352.15 551.32 350.2 550.87 354.38 532.75 362.83 549.32"/></g></g></svg>